<?xml version="1.0" encoding="UTF-8"?>
<svg id="Calque_2" data-name="Calque 2" xmlns="http://www.w3.org/2000/svg" viewBox="0 0 11.07 10.79">
  <defs>
    <style>
      .cls-1 {
        fill: #aa8f66;
      }

      .cls-1, .cls-2 {
        stroke-width: 0px;
      }

      .cls-2 {
        fill: #ed9b40;
      }
    </style>
  </defs>
  <g id="Calque_1-2" data-name="Calque 1">
    <g>
      <path class="cls-2" d="M5.77,4.89c.41,0,.79.12,1.12.35.33.23.6.56.79.98.2.42.3.88.3,1.4,0,1.07-.48,1.86-1.43,2.38-.96.52-2.42.78-4.4.78H0L.06.55C.39.34.91.2,1.61.12c.7-.08,1.36-.12,1.99-.12.58,0,1.14.11,1.67.34.53.22.97.53,1.3.91.33.38.5.81.5,1.28,0,.57-.15,1.09-.44,1.55-.3.46-.68.74-1.16.83.07,0,.16-.01.3-.01ZM4.17,2.36c-.2-.16-.46-.24-.78-.24-.23,0-.45.05-.66.15v1.6c.11.04.25.06.41.06.35,0,.66-.09.93-.28s.41-.41.41-.68-.1-.46-.3-.62ZM4.48,8.13c.32-.24.49-.54.49-.9,0-.29-.12-.53-.37-.7-.24-.18-.54-.27-.9-.27s-.68.08-.97.24v1.88c.18.08.37.11.58.11.46,0,.85-.12,1.17-.37Z"/>
      <path class="cls-1" d="M8.42,10.3c-.3-.33-.45-.71-.45-1.15,0-.3.08-.57.23-.82.15-.25.36-.44.6-.58s.51-.21.79-.21c.4,0,.75.14,1.03.42.29.28.43.66.43,1.14s-.14.88-.43,1.21c-.29.33-.65.49-1.09.49s-.83-.16-1.13-.49Z"/>
    </g>
  </g>
</svg>